<?xml version="1.0" standalone="no"?>
<!DOCTYPE svg PUBLIC "-//W3C//DTD SVG 20010904//EN"
 "http://www.w3.org/TR/2001/REC-SVG-20010904/DTD/svg10.dtd">
<svg version="1.0" xmlns="http://www.w3.org/2000/svg"
 width="192.00" height="192.00" viewBox="0 0 192.00 192.00"
 preserveAspectRatio="xMidYMid meet">
<!--
  https://web.dev/add-manifest/
  
  https://findicons.com/icon/557919/assistant#
  Icon Pack: Free icons for Windows8/Metro
  Designer: VisualPharm
  License: Creative Commons Attribution (by)
  https://convertio.co/download/59921a8bd365a1b450f83584c79a1f51c4ea9c/
-->
<title>assistant</title>
<defs><style> .ico-1 { fill: darkorange; } </style></defs>
<g class="ico-1" transform="translate(0.000,192.000) scale(0.150,-0.150)"
data-X-fill="#000000" stroke="none">
<path d="M491 1269 c-88 -11 -200 -66 -259 -127 -84 -86 -122 -192 -123 -343
-1 -76 -5 -98 -25 -133 -35 -63 -41 -123 -17 -177 23 -50 70 -101 111 -120 18
-8 34 -27 46 -56 23 -55 89 -140 120 -155 17 -7 30 -7 45 1 34 19 26 57 -23
112 -24 26 -52 71 -62 100 -16 44 -26 56 -64 76 -63 33 -90 66 -90 112 0 43 8
55 25 41 19 -16 61 4 68 32 4 13 7 45 7 71 0 64 12 83 57 92 57 10 82 31 110
92 l26 56 23 -45 c28 -55 62 -84 118 -99 35 -10 61 -7 171 15 72 14 135 26
142 26 13 0 29 -67 39 -158 6 -58 22 -92 45 -92 6 0 9 -26 7 -62 l-3 -63 -47
-23 c-27 -12 -48 -29 -48 -36 0 -8 -16 -44 -35 -80 -19 -37 -35 -73 -35 -81 0
-20 38 -44 60 -38 20 5 73 81 84 120 8 25 67 63 98 63 17 0 19 -4 14 -28 -13
-52 -57 -131 -90 -160 -27 -23 -52 -33 -122 -46 -49 -9 -97 -16 -107 -16 -9 0
-37 20 -60 45 -42 43 -46 45 -103 45 -51 0 -64 -4 -96 -30 -19 -16 -39 -41
-42 -55 -10 -41 21 -95 68 -116 55 -25 84 -24 142 6 34 18 77 29 139 36 140
15 193 33 244 87 47 48 95 142 106 207 4 22 20 59 35 83 35 53 46 138 30 216
-13 64 -56 109 -114 120 -35 7 -36 8 -36 54 0 63 -30 168 -64 227 -64 109
-188 187 -326 205 -85 11 -100 11 -189 -1z"/>
<path d="M360 679 c-63 -25 -80 -106 -34 -153 41 -40 96 -39 137 5 44 48 31
115 -28 144 -38 17 -41 17 -75 4z"/>
<path d="M755 681 c-60 -25 -80 -108 -36 -154 29 -31 67 -39 108 -22 37 16 53
41 53 85 0 44 -16 69 -55 86 -39 16 -42 16 -70 5z"/>
</g>
</svg>
